<svg width="132" height="40" viewBox="0 0 132 40" fill="none" xmlns="http://www.w3.org/2000/svg">
<path d="M6.63636 8.32737L11.3295 16.2592H11.5114L16.2273 8.32737H21.7841L14.6818 19.9637L21.9432 31.6001H16.2841L11.5114 23.6569H11.3295L6.55682 31.6001H0.920455L8.20455 19.9637L1.05682 8.32737H6.63636ZM29.7841 31.9296C28.6705 31.9296 27.678 31.7365 26.8068 31.3501C25.9356 30.9562 25.2462 30.3766 24.7386 29.6115C24.2386 28.8387 23.9886 27.8766 23.9886 26.7251C23.9886 25.7554 24.1667 24.941 24.5227 24.2819C24.8788 23.6228 25.3636 23.0925 25.9773 22.691C26.5909 22.2895 27.2879 21.9865 28.0682 21.7819C28.8561 21.5774 29.6818 21.4334 30.5455 21.3501C31.5606 21.244 32.3788 21.1456 33 21.0546C33.6212 20.9562 34.072 20.8122 34.3523 20.6228C34.6326 20.4334 34.7727 20.1531 34.7727 19.7819V19.7137C34.7727 18.994 34.5455 18.4372 34.0909 18.0433C33.6439 17.6493 33.0076 17.4524 32.1818 17.4524C31.3106 17.4524 30.6174 17.6456 30.1023 18.0319C29.5871 18.4107 29.2462 18.888 29.0795 19.4637L24.6023 19.1001C24.8295 18.0395 25.2765 17.1228 25.9432 16.3501C26.6098 15.5698 27.4697 14.9713 28.5227 14.5546C29.5833 14.1304 30.8106 13.9183 32.2045 13.9183C33.1742 13.9183 34.1023 14.0319 34.9886 14.2592C35.8826 14.4865 36.6742 14.8387 37.3636 15.316C38.0606 15.7933 38.6098 16.4069 39.0114 17.1569C39.4129 17.8993 39.6136 18.7895 39.6136 19.8274V31.6001H35.0227V29.1796H34.8864C34.6061 29.7251 34.2311 30.2062 33.7614 30.6228C33.2917 31.0319 32.7273 31.3539 32.0682 31.5887C31.4091 31.816 30.6477 31.9296 29.7841 31.9296ZM31.1705 28.5887C31.8826 28.5887 32.5114 28.4486 33.0568 28.1683C33.6023 27.8804 34.0303 27.494 34.3409 27.0092C34.6515 26.5243 34.8068 25.9751 34.8068 25.3615V23.5092C34.6553 23.6077 34.447 23.6986 34.1818 23.7819C33.9242 23.8577 33.6326 23.9296 33.3068 23.9978C32.9811 24.0584 32.6553 24.1152 32.3295 24.1683C32.0038 24.2137 31.7083 24.2554 31.4432 24.2933C30.875 24.3766 30.3788 24.5092 29.9545 24.691C29.5303 24.8728 29.2008 25.119 28.9659 25.4296C28.7311 25.7327 28.6136 26.1115 28.6136 26.566C28.6136 27.2251 28.8523 27.7289 29.3295 28.0774C29.8144 28.4183 30.428 28.5887 31.1705 28.5887ZM54.9034 38.1456V28.8046H54.7557C54.5284 29.2895 54.2064 29.7706 53.7898 30.2478C53.3807 30.7175 52.8466 31.1077 52.1875 31.4183C51.536 31.7289 50.7405 31.8842 49.8011 31.8842C48.4754 31.8842 47.2746 31.5433 46.1989 30.8615C45.1307 30.1721 44.2822 29.1607 43.6534 27.8274C43.0322 26.4865 42.7216 24.8425 42.7216 22.8956C42.7216 20.8956 43.0436 19.2327 43.6875 17.9069C44.3314 16.5736 45.1875 15.5774 46.2557 14.9183C47.3314 14.2516 48.5095 13.9183 49.7898 13.9183C50.767 13.9183 51.5814 14.0849 52.233 14.4183C52.892 14.744 53.4223 15.1531 53.8239 15.6456C54.233 16.1304 54.5436 16.6077 54.7557 17.0774H54.9602V14.1456H59.733V38.1456H54.9034ZM51.3352 28.0319C52.1155 28.0319 52.7746 27.8198 53.3125 27.3956C53.858 26.9637 54.2746 26.3615 54.5625 25.5887C54.858 24.816 55.0057 23.9107 55.0057 22.8728C55.0057 21.8349 54.8617 20.9334 54.5739 20.1683C54.286 19.4031 53.8693 18.8122 53.3239 18.3956C52.7784 17.9789 52.1155 17.7706 51.3352 17.7706C50.5398 17.7706 49.8693 17.9865 49.3239 18.4183C48.7784 18.8501 48.3655 19.4486 48.0852 20.2137C47.8049 20.9789 47.6648 21.8652 47.6648 22.8728C47.6648 23.888 47.8049 24.7857 48.0852 25.566C48.3731 26.3387 48.786 26.9448 49.3239 27.3842C49.8693 27.816 50.5398 28.0319 51.3352 28.0319ZM78.142 19.1228L73.7102 19.3956C73.6345 19.0168 73.4716 18.6759 73.2216 18.3728C72.9716 18.0622 72.642 17.816 72.233 17.6342C71.8314 17.4448 71.3504 17.3501 70.7898 17.3501C70.0398 17.3501 69.4072 17.5092 68.892 17.8274C68.3769 18.138 68.1193 18.5546 68.1193 19.0774C68.1193 19.494 68.286 19.8463 68.6193 20.1342C68.9527 20.4221 69.5246 20.6531 70.3352 20.8274L73.4943 21.4637C75.1913 21.8122 76.4564 22.3728 77.2898 23.1456C78.1231 23.9183 78.5398 24.9334 78.5398 26.191C78.5398 27.3349 78.2027 28.3387 77.5284 29.2024C76.8617 30.066 75.9451 30.7402 74.7784 31.2251C73.6193 31.7024 72.2822 31.941 70.767 31.941C68.4564 31.941 66.6155 31.4599 65.2443 30.4978C63.8807 29.5281 63.0814 28.2099 62.8466 26.5433L67.608 26.2933C67.7519 26.9978 68.1004 27.5357 68.6534 27.9069C69.2064 28.2706 69.9148 28.4524 70.7784 28.4524C71.6269 28.4524 72.3087 28.2895 72.8239 27.9637C73.3466 27.6304 73.6117 27.2024 73.6193 26.6796C73.6117 26.2402 73.4261 25.8804 73.0625 25.6001C72.6989 25.3122 72.1383 25.0925 71.3807 24.941L68.358 24.3387C66.6534 23.9978 65.3845 23.4069 64.5511 22.566C63.7254 21.7251 63.3125 20.6531 63.3125 19.3501C63.3125 18.2289 63.6155 17.263 64.2216 16.4524C64.8352 15.6418 65.6951 15.0168 66.8011 14.5774C67.9148 14.138 69.2178 13.9183 70.7102 13.9183C72.9148 13.9183 74.6496 14.3842 75.9148 15.316C77.1875 16.2478 77.9299 17.5168 78.142 19.1228ZM89.4744 31.941C87.7093 31.941 86.1828 31.566 84.8949 30.816C83.6146 30.0584 82.6259 29.0054 81.929 27.6569C81.232 26.3009 80.8835 24.7289 80.8835 22.941C80.8835 21.138 81.232 19.5622 81.929 18.2137C82.6259 16.8577 83.6146 15.8046 84.8949 15.0546C86.1828 14.2971 87.7093 13.9183 89.4744 13.9183C91.2396 13.9183 92.7623 14.2971 94.0426 15.0546C95.3305 15.8046 96.3229 16.8577 97.0199 18.2137C97.7169 19.5622 98.0653 21.138 98.0653 22.941C98.0653 24.7289 97.7169 26.3009 97.0199 27.6569C96.3229 29.0054 95.3305 30.0584 94.0426 30.816C92.7623 31.566 91.2396 31.941 89.4744 31.941ZM89.4972 28.191C90.3002 28.191 90.9706 27.9637 91.5085 27.5092C92.0464 27.0471 92.4517 26.4183 92.7244 25.6228C93.0047 24.8274 93.1449 23.9221 93.1449 22.9069C93.1449 21.8918 93.0047 20.9865 92.7244 20.191C92.4517 19.3956 92.0464 18.7668 91.5085 18.3046C90.9706 17.8425 90.3002 17.6115 89.4972 17.6115C88.6866 17.6115 88.0047 17.8425 87.4517 18.3046C86.9063 18.7668 86.4934 19.3956 86.2131 20.191C85.9403 20.9865 85.804 21.8918 85.804 22.9069C85.804 23.9221 85.9403 24.8274 86.2131 25.6228C86.4934 26.4183 86.9063 27.0471 87.4517 27.5092C88.0047 27.9637 88.6866 28.191 89.4972 28.191ZM109.099 31.941C107.334 31.941 105.808 31.566 104.52 30.816C103.24 30.0584 102.251 29.0054 101.554 27.6569C100.857 26.3009 100.509 24.7289 100.509 22.941C100.509 21.138 100.857 19.5622 101.554 18.2137C102.251 16.8577 103.24 15.8046 104.52 15.0546C105.808 14.2971 107.334 13.9183 109.099 13.9183C110.865 13.9183 112.387 14.2971 113.668 15.0546C114.955 15.8046 115.948 16.8577 116.645 18.2137C117.342 19.5622 117.69 21.138 117.69 22.941C117.69 24.7289 117.342 26.3009 116.645 27.6569C115.948 29.0054 114.955 30.0584 113.668 30.816C112.387 31.566 110.865 31.941 109.099 31.941ZM109.122 28.191C109.925 28.191 110.596 27.9637 111.134 27.5092C111.671 27.0471 112.077 26.4183 112.349 25.6228C112.63 24.8274 112.77 23.9221 112.77 22.9069C112.77 21.8918 112.63 20.9865 112.349 20.191C112.077 19.3956 111.671 18.7668 111.134 18.3046C110.596 17.8425 109.925 17.6115 109.122 17.6115C108.312 17.6115 107.63 17.8425 107.077 18.3046C106.531 18.7668 106.118 19.3956 105.838 20.191C105.565 20.9865 105.429 21.8918 105.429 22.9069C105.429 23.9221 105.565 24.8274 105.838 25.6228C106.118 26.4183 106.531 27.0471 107.077 27.5092C107.63 27.9637 108.312 28.191 109.122 28.191ZM120.838 31.6001V14.1456H125.531V17.191H125.713C126.031 16.1077 126.565 15.2895 127.315 14.7365C128.065 14.1759 128.929 13.8956 129.906 13.8956C130.149 13.8956 130.41 13.9107 130.69 13.941C130.971 13.9713 131.217 14.013 131.429 14.066V18.3615C131.202 18.2933 130.887 18.2327 130.486 18.1796C130.084 18.1266 129.717 18.1001 129.384 18.1001C128.671 18.1001 128.035 18.2554 127.474 18.566C126.921 18.869 126.482 19.2933 126.156 19.8387C125.838 20.3842 125.679 21.013 125.679 21.7251V31.6001H120.838Z" fill="#1B273D"/>
</svg>
