<svg width="40" height="40" viewBox="0 0 40 40" fill="none" xmlns="http://www.w3.org/2000/svg">
<rect width="40" height="40" rx="20" fill="white"/>
<path d="M28.25 13.25H24.5V12.5C24.5 11.9033 24.2629 11.331 23.841 10.909C23.419 10.4871 22.8467 10.25 22.25 10.25H17.75C17.1533 10.25 16.581 10.4871 16.159 10.909C15.7371 11.331 15.5 11.9033 15.5 12.5V13.25H11.75C11.5511 13.25 11.3603 13.329 11.2197 13.4697C11.079 13.6103 11 13.8011 11 14C11 14.1989 11.079 14.3897 11.2197 14.5303C11.3603 14.671 11.5511 14.75 11.75 14.75H12.5V28.25C12.5 28.6478 12.658 29.0294 12.9393 29.3107C13.2206 29.592 13.6022 29.75 14 29.75H26C26.3978 29.75 26.7794 29.592 27.0607 29.3107C27.342 29.0294 27.5 28.6478 27.5 28.25V14.75H28.25C28.4489 14.75 28.6397 14.671 28.7803 14.5303C28.921 14.3897 29 14.1989 29 14C29 13.8011 28.921 13.6103 28.7803 13.4697C28.6397 13.329 28.4489 13.25 28.25 13.25ZM17 12.5C17 12.3011 17.079 12.1103 17.2197 11.9697C17.3603 11.829 17.5511 11.75 17.75 11.75H22.25C22.4489 11.75 22.6397 11.829 22.7803 11.9697C22.921 12.1103 23 12.3011 23 12.5V13.25H17V12.5ZM26 28.25H14V14.75H26V28.25ZM18.5 18.5V24.5C18.5 24.6989 18.421 24.8897 18.2803 25.0303C18.1397 25.171 17.9489 25.25 17.75 25.25C17.5511 25.25 17.3603 25.171 17.2197 25.0303C17.079 24.8897 17 24.6989 17 24.5V18.5C17 18.3011 17.079 18.1103 17.2197 17.9697C17.3603 17.829 17.5511 17.75 17.75 17.75C17.9489 17.75 18.1397 17.829 18.2803 17.9697C18.421 18.1103 18.5 18.3011 18.5 18.5ZM23 18.5V24.5C23 24.6989 22.921 24.8897 22.7803 25.0303C22.6397 25.171 22.4489 25.25 22.25 25.25C22.0511 25.25 21.8603 25.171 21.7197 25.0303C21.579 24.8897 21.5 24.6989 21.5 24.5V18.5C21.5 18.3011 21.579 18.1103 21.7197 17.9697C21.8603 17.829 22.0511 17.75 22.25 17.75C22.4489 17.75 22.6397 17.829 22.7803 17.9697C22.921 18.1103 23 18.3011 23 18.5Z" fill="black"/>
</svg>
